<svg clip-rule="evenodd" fill-rule="evenodd" stroke-linejoin="round" stroke-miterlimit="2" viewBox="0 0 541 124" xmlns="http://www.w3.org/2000/svg"><path d="m697 204.1c0-7.782-5.679-14.1-12.675-14.1h-527.65c-6.996 0-12.675 6.318-12.675 14.1v112.8c0 7.782 5.679 14.1 12.675 14.1h527.65c6.996 0 12.675-6.318 12.675-14.1z" fill="#fff" transform="matrix(.9783 0 0 .879433 -140.875 -167.092)"/><g transform="matrix(.156498 0 0 .156498 8.6883968 21.9631478)"><path d="m595.297 156.795c0-79.476-64.524-144-144-144h-198.069c-79.476 0-144 64.524-144 144v198.069c0 79.476 64.524 144 144 144h198.069c79.476 0 144-64.524 144-144z" fill="#2671e5"/><path d="m483.881 237.58c-7.272-10.754-19.438-17.213-32.42-17.213-11.497 0-22.428 5.066-29.86 13.837-2.653 2.857-4.885 6.077-6.63 9.563-1.727 3.358-3.068 6.902-3.996 10.563h-24.07c-.532-.889-.918-1.856-1.144-2.867-3.275-12.86-11.301-22.055-23.473-27.123-23.433-9.759-48.868 3.186-55.421 27.865-.43 1.621-.11 3.456-2.853 3.833-11.36 1.562-24.183-4.938-29.567-15.308-3.63-6.992-3.438-7.6 4.365-8.58 32.39-4.068 58.84-36.956 47.644-75.096-8.112-27.633-38.396-45.567-66.762-39.691-26.74 5.539-45.62 27.835-47.019 55.526-1.286 25.474 16.333 49.822 41.917 57.39 3.855 1.14 4.726 2.846 4.707 6.546-.132 25.827-.25 51.658.032 77.483.262 23.886 17.783 43.331 41.26 45.85 4.424.474 5.92 2.036 7.03 6.142 4.373 16.193 18.915 27.711 35.85 28.995 16.591 1.331 32.374-7.748 39.564-22.76 10.35-22.187.098-47.524-22.627-55.92-22.509-8.316-47.004 4.575-53.217 28.333-1.064 4.065-2.849 4.315-6.247 3.752-17.443-2.887-29.555-16.785-30.042-34.916-.196-7.28-.047-14.569-.049-21.854-.003-11.54 0-23.082 0-35.953 5.617 4.306 10.347 7.546 15.909 9.432 5.531 1.766 11.34 2.503 17.137 2.175 2.793-.097 2.56 2.004 2.998 3.65 2.997 11.253 9.314 20.03 19.495 25.814 6.137 3.535 13.096 5.396 20.178 5.396 18.382 0 34.56-12.538 39.146-30.339.227-.994.619-1.942 1.16-2.806h24.472c.156 1.323.434 2.63.83 3.902 5.055 18.2 21.745 29.802 40.829 29.154 15.31-.52 32.563-10.16 37.839-31.702 2.751-11.504.192-23.656-6.965-33.074zm-137.332 88.318c.092-.001.183-.001.275-.001 15.763 0 28.734 12.971 28.734 28.734 0 .076 0 .152-.001.228v.089c0 15.936-13.114 29.05-29.05 29.05s-29.05-13.114-29.05-29.05 13.114-29.05 29.05-29.05zm-121.91-151.642c.204-25.291 21.069-45.987 46.36-45.987 25.354 0 46.246 20.796 46.362 46.149v.213c0 25.433-20.928 46.362-46.362 46.362-25.433 0-46.362-20.929-46.362-46.362 0-.125.001-.25.002-.375zm121.711 116.485c-15.774-.144-28.673-13.161-28.673-28.936 0-15.874 13.063-28.937 28.937-28.937 15.875 0 28.937 13.063 28.937 28.937v.146c-.062 15.814-13.091 28.792-28.905 28.792-.099 0-.197-.001-.296-.002zm92.052-2.865c-10.099-4.841-16.552-15.09-16.552-26.289 0-15.993 13.16-29.153 29.153-29.153s29.153 13.16 29.153 29.153c0 15.899-13.006 29.017-28.905 29.152-.27 0-.538-.011-.807-.018-4.164-.129-8.26-1.097-12.042-2.846z" fill="#fff" fill-rule="nonzero"/><path d="m294.843 164.745c-9.519-6.282-19.171-12.363-28.954-18.242-8.629-5.211-17.92.049-18.163 10.144-.144 5.951-.027 11.908-.02 17.862.008 6.12-.108 12.242.034 18.358.221 9.49 9.328 14.937 17.464 10.2 9.997-5.82 19.84-11.901 29.53-18.243 8.064-5.274 8.084-14.817.11-20.08zm-7.926 11.34c-8.308 5.135-16.612 10.275-24.912 15.42-1.44.892-2.553.979-2.557-1.16-.018-11.038-.008-22.075-.008-34.158 9.734 6.116 18.644 11.706 27.542 17.315 1.347.85 1.308 1.735-.065 2.584zm47.866 184.431c3.523-.23 5.671-2.22 5.806-5.526.022-.193.033-.387.033-.581 0-2.853-2.348-5.201-5.201-5.201-.068 0-.136.001-.204.004-3.687-.141-5.9 1.914-5.953 5.651-.051 3.57 2.212 5.217 5.519 5.653zm23.595-.07c3.407-.504 5.59-2.332 5.408-5.895-.178-3.504-2.4-5.497-5.896-5.334-3.466.162-5.595 2.311-5.45 5.807.146 3.5 2.46 5.218 5.938 5.422zm107.903-101.904c1.329-1.325 2.4-2.75 2.253-4.912.143-2.172-1.126-4.205-3.14-5.03-2.117-1.155-4.767-.725-6.411 1.039-3.079 2.765-6.008 5.693-8.774 8.772-3.136 3.684-5.719 5.414-9.562.63-2.26-2.812-5.677-2.757-8.302-.012-2.467 2.578-2.068 5.508.209 8.022 2.44 2.696 5.047 5.255 7.704 7.741 3.677 3.44 6.177 3.447 9.85-.122 5.461-5.304 10.782-10.752 16.173-16.128zm-105.249-9.824c-2.05-1.271-4.725-.977-6.45.71-2.981 2.615-5.819 5.389-8.5 8.311-3.257 3.65-6.041 6.508-10.407 1.042-2.133-2.672-5.475-2.296-7.91.19-2.486 2.536-2.231 5.45.092 7.985 2.566 2.8 5.333 5.416 8.038 8.084 3.234 3.19 6.403 2.874 9.505-.23 5.371-5.377 10.748-10.749 16.131-16.116 1.44-1.436 2.675-2.957 2.451-5.134.073-2.055-1.091-3.965-2.95-4.842z" fill="#fff" fill-rule="nonzero"/></g><g fill-rule="nonzero" transform="translate(-135.046 -188.46104)"><path d="m286.867 233.922-12.853 33.078h3.224l3.732-9.629h15.249l3.732 9.629h3.317l-12.9-33.078zm1.705 3.686 6.541 16.953h-13.083z"/><path d="m308.75 254.976c0-5.943 3.179-9.813 7.878-9.813 3.639 0 5.759 2.304 6.496 5.528l2.718-1.151c-1.106-4.147-4.377-7.049-9.214-7.049-6.542 0-10.919 5.068-10.919 12.485 0 7.463 4.377 12.485 10.919 12.485 4.883 0 8.2-2.903 9.26-7.095l-2.764-1.106c-.737 3.225-2.857 5.529-6.496 5.529-4.699 0-7.878-3.824-7.878-9.813z"/><path d="m332.199 261.518c0 4.33 2.212 5.712 5.943 5.712 1.382 0 2.396-.138 3.502-.414v-2.672c-1.06.276-1.889.368-2.903.368-2.303 0-3.547-.691-3.547-3.455v-15.479h5.805v-2.626h-5.805v-6.957h-2.995v6.957h-4.008v2.626h4.008z"/><path d="m346.896 238.022h3.547v-4.1h-3.547zm3.27 4.93h-3.04v24.048h3.04z"/><path d="m377.808 254.976c0-7.417-4.376-12.485-10.826-12.485s-10.78 5.068-10.78 12.485 4.33 12.485 10.78 12.485 10.826-5.068 10.826-12.485zm-18.566 0c0-5.943 3.087-9.859 7.74-9.859s7.74 3.916 7.74 9.859c0 5.989-3.087 9.859-7.74 9.859s-7.74-3.87-7.74-9.859z"/><path d="m383.797 267h3.041v-14.558c0-4.423 3.501-7.095 6.864-7.095 4.008 0 5.621 2.811 5.621 6.542v15.111h3.04v-15.802c0-5.114-2.718-8.707-7.924-8.707-3.639 0-6.219 1.981-7.601 4.331v-3.87h-3.041z"/><path d="m409.873 233.922h3.041v33.078h-3.041z"/><path d="m420.422 238.022h3.548v-4.1h-3.548zm3.271 4.93h-3.04v24.048h3.04z"/><path d="m431.433 267h3.041v-14.558c0-4.423 3.501-7.095 6.864-7.095 4.008 0 5.621 2.811 5.621 6.542v15.111h3.04v-15.802c0-5.114-2.718-8.707-7.924-8.707-3.639 0-6.219 1.981-7.601 4.331v-3.87h-3.041z"/><path d="m458.292 261.518c0 4.33 2.211 5.712 5.943 5.712 1.382 0 2.395-.138 3.501-.414v-2.672c-1.06.276-1.889.368-2.902.368-2.304 0-3.548-.691-3.548-3.455v-15.479h5.805v-2.626h-5.805v-6.957h-2.994v6.957h-4.008v2.626h4.008z"/><path d="m493.12 233.6c-.783-.139-1.336-.139-2.165-.139-4.423 0-6.91 2.857-6.91 7.279v2.212h-3.778v2.626h3.778v21.422h3.086v-21.422h5.713v-2.626h-5.713v-1.981c0-3.363 1.428-4.792 4.054-4.792.783 0 1.198.047 1.935.139z"/><path d="m517.03 254.976c0-7.417-4.376-12.485-10.826-12.485s-10.78 5.068-10.78 12.485 4.33 12.485 10.78 12.485 10.826-5.068 10.826-12.485zm-18.566 0c0-5.943 3.087-9.859 7.74-9.859s7.74 3.916 7.74 9.859c0 5.989-3.087 9.859-7.74 9.859s-7.74-3.87-7.74-9.859z"/><path d="m534.537 242.906c-.415-.093-1.06-.185-1.751-.185-3.409 0-5.666 2.166-6.726 4.792v-4.561h-3.041v24.048h3.041v-13.498c0-4.607 2.994-7.74 6.496-7.74.737 0 1.336.046 1.981.184z"/><path d="m575.032 233.922h-3.133v27.458l-18.52-27.458h-3.547v33.078h3.133v-28.517l19.303 28.517h2.764z"/><path d="m602.904 254.976c0-7.417-4.377-12.485-10.826-12.485-6.45 0-10.781 5.068-10.781 12.485s4.331 12.485 10.781 12.485c6.449 0 10.826-5.068 10.826-12.485zm-18.566 0c0-5.943 3.087-9.859 7.74-9.859s7.739 3.916 7.739 9.859c0 5.989-3.086 9.859-7.739 9.859s-7.74-3.87-7.74-9.859z"/><path d="m617.462 267 9.168-24.048h-3.179l-7.417 20.224-7.417-20.224h-3.225l9.167 24.048z"/><path d="m636.765 267.461c3.409 0 6.265-1.613 7.648-3.594.23 2.672 2.349 3.686 5.85 3.179v-2.58c-1.704.507-2.994-.046-2.994-1.75v-12.808c0-4.837-3.133-7.417-8.247-7.417-4.607 0-8.108 2.58-9.26 6.45l2.903.875c.783-2.994 2.948-4.607 6.265-4.607 3.502 0 5.298 1.705 5.298 4.837v1.475l-5.206 1.059c-5.989 1.198-9.997 3.225-9.997 8.062 0 4.423 3.548 6.819 7.74 6.819zm7.463-8.431c0 3.179-3.086 5.897-7.141 5.897-3.04 0-4.975-1.705-4.975-4.331 0-3.593 2.995-4.745 7.786-5.712l4.33-.922z"/></g></svg>